<svg xmlns="http://www.w3.org/2000/svg" viewBox="0 0 150.35 29.1"><path d="M24.72,11a1.28,1.28,0,1,1,2.54,0v3.46a3.67,3.67,0,0,1,2.41-.88c2.73,0,4.09,2.55,4.09,5s-1.62,4.77-4.18,4.77a2.74,2.74,0,0,1-2.32-1.16A1.21,1.21,0,0,1,26,23.28a1.29,1.29,0,0,1-1.27-1.41Zm4.53,10c1.32,0,2-1.38,2-2.56s-.65-2.59-2-2.59-2,1.27-2,2.5S27.86,21.06,29.25,21.06Z" style="fill:#a97f2c;stroke:#231f20;stroke-width:0.6144779335760082px"/><path d="M36.62,19.33A2.18,2.18,0,0,0,39,21.16c1.31,0,2.2-1,2.87-1a1.13,1.13,0,0,1,1,1.09c0,1.1-2.25,2.15-4.14,2.15A4.62,4.62,0,0,1,34,18.5a4.56,4.56,0,1,1,9.1-.3c0,.76-.33,1.13-1.11,1.13Zm4-1.69a2,2,0,0,0-2-1.94,2,2,0,0,0-2,1.94Z" style="fill:#a97f2c;stroke:#231f20;stroke-width:0.6144779335760082px"/><path d="M52.53,21.62c0,.65,0,1.66-1.22,1.66-.74,0-1-.41-1.22-1.08a3,3,0,0,1-2.41,1.18c-2.38,0-4.19-2-4.19-4.88s1.86-4.91,4.19-4.91a2.9,2.9,0,0,1,2.41,1.16,1.21,1.21,0,0,1,1.22-1.06c1.22,0,1.22,1,1.22,1.66ZM48,21.06c1.32,0,2-1.34,2-2.56s-.62-2.59-2-2.59-2,1.38-2,2.59S46.66,21.06,48,21.06Z" style="fill:#a97f2c;stroke:#231f20;stroke-width:0.6144779335760082px"/><path d="M62.11,22.43c0,3.05-2,4.58-4.88,4.58-1,0-4-.51-4-1.9a1.23,1.23,0,0,1,1-1.11c.81,0,1.71.79,3.17.79a2,2,0,0,0,2.15-2v-.59h0A2.91,2.91,0,0,1,57,23.38c-2.66,0-3.91-2.34-3.91-4.86s1.62-4.93,4.18-4.93a2.74,2.74,0,0,1,2.32,1.16,1.22,1.22,0,0,1,1.27-1.06,1.29,1.29,0,0,1,1.27,1.41Zm-4.53-6.52c-1.32,0-2,1.38-2,2.56,0,1.35.65,2.59,2,2.59s2-1.27,2-2.5S59,15.91,57.58,15.91Z" style="fill:#a97f2c;stroke:#231f20;stroke-width:0.6144779335760082px"/><path d="M62.91,11a1.27,1.27,0,1,1,2.53,0V21.87a1.27,1.27,0,1,1-2.53,0Z" style="fill:#a97f2c;stroke:#231f20;stroke-width:0.6144779335760082px"/><path d="M68.72,19.33a2.2,2.2,0,0,0,2.4,1.83c1.3,0,2.2-1,2.87-1a1.13,1.13,0,0,1,1,1.09c0,1.1-2.26,2.15-4.14,2.15a4.62,4.62,0,0,1-4.76-4.88,4.56,4.56,0,1,1,9.11-.3c0,.76-.34,1.13-1.11,1.13Zm4-1.69a2,2,0,0,0-2-1.94,2,2,0,0,0-2,1.94Z" style="fill:#a97f2c;stroke:#231f20;stroke-width:0.6144779335760082px"/><path d="M76.23,11a1.27,1.27,0,1,1,2.53,0v3.46a3.7,3.7,0,0,1,2.42-.88c2.73,0,4.08,2.55,4.08,5s-1.62,4.77-4.17,4.77a2.77,2.77,0,0,1-2.33-1.16,1.21,1.21,0,0,1-1.27,1.06,1.28,1.28,0,0,1-1.26-1.41Zm4.52,10c1.33,0,2-1.38,2-2.56s-.65-2.59-2-2.59-2,1.27-2,2.5S79.36,21.06,80.75,21.06Z" style="fill:#f26322;stroke:#231f20;stroke-width:0.6144779335760082px"/><path d="M94.88,18.5a4.56,4.56,0,1,1-9.09,0,4.56,4.56,0,1,1,9.09,0Zm-6.55,0c0,1.22.63,2.56,2,2.56s2-1.34,2-2.56-.62-2.59-2-2.59S88.33,17.29,88.33,18.5Z" style="fill:#f26322;stroke:#231f20;stroke-width:0.6144779335760082px"/><path d="M104.45,21.62c0,.65,0,1.66-1.21,1.66-.74,0-1-.41-1.22-1.08a3,3,0,0,1-2.41,1.18c-2.38,0-4.2-2-4.2-4.88s1.87-4.91,4.2-4.91A2.9,2.9,0,0,1,102,14.75a1.21,1.21,0,0,1,1.22-1.06c1.21,0,1.21,1,1.21,1.66ZM100,21.06c1.32,0,2-1.34,2-2.56s-.61-2.59-2-2.59-2,1.38-2,2.59S98.58,21.06,100,21.06Z" style="fill:#f26322;stroke:#231f20;stroke-width:0.6144779335760082px"/><path d="M105.16,15a1.25,1.25,0,0,1,1.3-1.27c.67,0,1.24.25,1.24,1.06h0a2,2,0,0,1,1.78-1.06,1.23,1.23,0,0,1,1.23,1.36c0,.83-.75.88-1.51,1.23S107.7,17,107.7,18v3.9a1.28,1.28,0,1,1-2.54,0Z" style="fill:#f26322;stroke:#231f20;stroke-width:0.6144779335760082px"/><path d="M119.59,21.87a1.29,1.29,0,0,1-1.27,1.41,1.21,1.21,0,0,1-1.27-1.06,2.75,2.75,0,0,1-2.33,1.16c-2.55,0-4.17-2.38-4.17-4.77s1.36-5,4.09-5a3.67,3.67,0,0,1,2.41.88V11a1.28,1.28,0,1,1,2.54,0Zm-4.53-6c-1.32,0-2,1.39-2,2.59s.65,2.56,2,2.56,2-1.41,2-2.65S116.42,15.91,115.06,15.91Z" style="fill:#f26322;stroke:#231f20;stroke-width:0.6144779335760082px"/><path d="M122.06,20.63A1.38,1.38,0,1,1,120.68,22,1.38,1.38,0,0,1,122.06,20.63Z" style="fill:#f26322;stroke:#231f20;stroke-width:0.6144779335760082px"/><path d="M132.81,18.5a4.56,4.56,0,1,1-9.09,0,4.56,4.56,0,1,1,9.09,0Zm-6.56,0c0,1.22.64,2.56,2,2.56s2-1.34,2-2.56-.62-2.59-2-2.59S126.25,17.29,126.25,18.5Z" style="fill:#f26322;stroke:#231f20;stroke-width:0.6144779335760082px"/><path d="M133.41,15a1.25,1.25,0,0,1,1.3-1.27c.67,0,1.23.25,1.23,1.06h0a2,2,0,0,1,1.78-1.06A1.23,1.23,0,0,1,139,15.05c0,.83-.75.88-1.51,1.23s-1.54.69-1.54,1.69v3.9a1.27,1.27,0,1,1-2.53,0Z" style="fill:#f26322;stroke:#231f20;stroke-width:0.6144779335760082px"/><path d="M147.89,22.43c0,3.05-2,4.58-4.88,4.58-1,0-4-.51-4-1.9A1.23,1.23,0,0,1,140,24c.81,0,1.71.79,3.17.79a2,2,0,0,0,2.15-2v-.59h0a2.91,2.91,0,0,1-2.56,1.19c-2.66,0-3.91-2.34-3.91-4.86s1.62-4.93,4.18-4.93a2.74,2.74,0,0,1,2.32,1.16,1.22,1.22,0,0,1,1.27-1.06,1.29,1.29,0,0,1,1.27,1.41Zm-4.53-6.52c-1.32,0-2,1.38-2,2.56,0,1.35.65,2.59,2,2.59s2-1.27,2-2.5S144.75,15.91,143.36,15.91Z" style="fill:#f26322;stroke:#231f20;stroke-width:0.6144779335760082px"/><path d="M20.68,11.38c.48-2.6-1.75-4.68-5.14-5.84-.92-3.23-3-5.14-6-5.14A5.89,5.89,0,0,0,5.23,2.15C3,2.29,3,4.94,1,8.72c-1.53,3-.33,6,3.38,6.5a11.91,11.91,0,0,0-.91,4.46c-1.88-2.15-1.36-4.38-2.41-4.32-1.32.07.36,4.74,2.7,7.34A10.15,10.15,0,0,0,4.11,24a2.45,2.45,0,0,0-1.67,2.11c0,1.11.76,1.22,1.75,1.23a1.74,1.74,0,0,0-.05.39.91.91,0,0,0,.35.75,1.92,1.92,0,0,0,1.1.31h.22A3.2,3.2,0,0,0,8,28.05a1.87,1.87,0,0,0,.64-1.36,1.55,1.55,0,0,0,0-.32,1.64,1.64,0,0,1,0-.18,14.24,14.24,0,0,1,2.53,0,1.78,1.78,0,0,1,0,.2,1.36,1.36,0,0,0,0,.29A1.85,1.85,0,0,0,11.72,28a3.34,3.34,0,0,0,2.27.72h.22a1.9,1.9,0,0,0,1.07-.29.89.89,0,0,0,.35-.73,1.54,1.54,0,0,0-.06-.43c1,0,1.79-.1,1.79-1.23A2.45,2.45,0,0,0,15.69,24a12.91,12.91,0,0,0-.15-8.29l-.06,0a8.46,8.46,0,0,0,2.63-1c.33.53.65,1.05,1.42.94,1.14-.16,1.63-1.88.64-2.89A4,4,0,0,0,20.68,11.38Z" style="fill:#fff;stroke:#231f20;stroke-width:0.702260495515438px"/><path d="M20.85,11.21c.48-2.6-1.75-4.68-5.14-5.84-.91-3.23-3-5.15-6-5.15A5.9,5.9,0,0,0,5.4,2c-2.25.14-2.26,2.78-4.22,6.56-1.54,3-.33,6,3.37,6.51a11.9,11.9,0,0,0-.9,4.45c-1.88-2.15-1.37-4.37-2.42-4.32-1.31.08.37,4.74,2.71,7.35a13,13,0,0,0,.34,1.26,2.44,2.44,0,0,0-1.67,2.1c0,1.12.77,1.22,1.76,1.23a1.74,1.74,0,0,0,0,.39.9.9,0,0,0,.35.76,1.9,1.9,0,0,0,1.1.3H6a3.21,3.21,0,0,0,2.22-.71,1.86,1.86,0,0,0,.63-1.36,1.66,1.66,0,0,0,0-.32s0-.1,0-.18a15.38,15.38,0,0,1,2.54,0,1.52,1.52,0,0,1,0,.19,1,1,0,0,0,0,.3,1.88,1.88,0,0,0,.67,1.37,3.32,3.32,0,0,0,2.27.72h.21a1.93,1.93,0,0,0,1.08-.29.9.9,0,0,0,.35-.73,2.26,2.26,0,0,0-.07-.43c1,0,1.8-.1,1.8-1.23a2.44,2.44,0,0,0-1.67-2.1,13.07,13.07,0,0,0-.15-8.3l-.06,0a9,9,0,0,0,2.63-1c.33.53.65,1.05,1.41.94,1.15-.17,1.63-1.88.65-2.89A4.07,4.07,0,0,0,20.85,11.21Z" style="fill:#fff;stroke:#231f20;stroke-width:0.4389128096971488px"/><path d="M15.87,23.79c.35-.18,1.75.52,1.67,2.1s-2,1.23-2,1.23l-.88-2s-.35-3.86-.26-5.88a5,5,0,0,0-1.32-3.42,10.66,10.66,0,0,1,1.4-.09,3.22,3.22,0,0,0,1.26-.22s.68.84.76,3.64S15.52,24,15.87,23.79Z" style="fill:#a97f2c"/><path d="M13.94,2a16.25,16.25,0,0,1,1.91,3.55,6,6,0,0,1-2.82-1C12.54,4.11,10.27.36,10.27.36A8,8,0,0,1,13.94,2Z" style="fill:#a97f2c"/><path d="M9.71.22s2.73,4.11,2.7,5.59C12.36,8,8.59,7.47,11,13.43c.62,1.49-.79,2.72-2.81,2.37-.92-.16-2.63.26-2.63,3s-.18,6.32-.18,6.32l-.79,2s-1.93.27-1.93-.87.53-1.5,1.32-2.11-.08-1.61-.08-1.61A37.78,37.78,0,0,1,1.12,18c-.09-.61,1-1.4,1-1.4A25.42,25.42,0,0,0,3.65,19.5c.28.25.19-3.44.72-4s.79-13.26.79-13.26S5.58.79,9.71.22Z" style="fill:#a97f2c"/><path d="M9,11.15c-3.54.63-5.3,4.45-5.37,8.35-1.88-2.15-1.37-4.37-2.42-4.32-1.31.08.37,4.74,2.71,7.35a13,13,0,0,0,.34,1.26,2.44,2.44,0,0,0-1.67,2.1c0,1.22.91,1.23,2,1.23A1.94,1.94,0,0,0,6,26.52a14.8,14.8,0,0,1,8.11,0,1.94,1.94,0,0,0,1.39.6c1.11,0,2,0,2-1.23a2.44,2.44,0,0,0-1.67-2.1,13.07,13.07,0,0,0-.15-8.3" style="fill:none;stroke:#231f20;stroke-width:0.4389128096971488px"/><path d="M5.69,18.43s-.09,5.71-.27,6.67-2.1,3.16.35,3.25,3-1.4,2.81-2.1-.35-6-.35-6" style="fill:#fff"/><path d="M6,28.57H5.77a1.9,1.9,0,0,1-1.1-.3h0a.9.9,0,0,1-.35-.76h0a3.36,3.36,0,0,1,.42-1.35h0a6,6,0,0,0,.47-1.1h0a14,14,0,0,0,.11-1.42h0c0-.66.06-1.47.08-2.24h0c0-1.55.07-1.13.07-1.78a3.59,3.59,0,0,1,.22-1.19,2.89,2.89,0,0,1,.22,1.2c0,.56,0,2-.15,4h0c0,.67-.07,1.2-.12,1.47h0a6.36,6.36,0,0,1-.5,1.21h0a2.89,2.89,0,0,0-.38,1.16h0a.45.45,0,0,0,.18.41h0a1.4,1.4,0,0,0,.84.21H6a2.73,2.73,0,0,0,1.92-.6h0a1.4,1.4,0,0,0,.49-1h0a.68.68,0,0,0,0-.21h0A10.63,10.63,0,0,1,8.24,25h0c-.05-.59-.08-1.32-.12-2h0c-.06-1.41,0-1.08,0-1.65a4.06,4.06,0,0,1,.16-1.08,3.31,3.31,0,0,1,.28,1.22c0,.63,0-.49,0,.47h0c0,1,.09,2.15.15,3h0a8.79,8.79,0,0,0,.13,1.19h0a1.66,1.66,0,0,1,0,.32h0a1.86,1.86,0,0,1-.63,1.36h0A3.21,3.21,0,0,1,6,28.58H6Z" style="fill:#231f20"/><path d="M14.38,18.43s.08,5.71.26,6.67,2.19,3.16-.26,3.25-3.08-1.4-2.9-2.1.35-6,.35-6" style="fill:#fff"/><path d="M11.9,27.86a1.88,1.88,0,0,1-.67-1.37h0a1,1,0,0,1,0-.3h0c0-.13.08-.6.12-1.19h0c0-.59.08-1.31.11-2h0c.07-1.41.11-1.19.11-1.7a2.46,2.46,0,0,1,.27-1,3.38,3.38,0,0,1,.17,1c0,.57-.1,1.95-.22,3.73h0a10,10,0,0,1-.14,1.27h0a1,1,0,0,0,0,.19h0a1.42,1.42,0,0,0,.52,1h0a2.92,2.92,0,0,0,2,.61h.2a1.44,1.44,0,0,0,.82-.2h0a.44.44,0,0,0,.18-.38h0A3.2,3.2,0,0,0,15,26.37h0a6,6,0,0,1-.54-1.23h0c0-.27-.08-.8-.11-1.48h0c0-.67-.06-1.47-.09-2.25h0c0-1.55-.06-1.72-.06-2.27a9,9,0,0,1,.08-1.1,2.83,2.83,0,0,1,.36,1.1c0,.48,0,.09,0,1.14h0c0,1.06.06,2.36.11,3.36h0c0,.67.08,1.21.12,1.42h0a4.69,4.69,0,0,0,.49,1.11h0a3.57,3.57,0,0,1,.46,1.38h0a.9.9,0,0,1-.35.73h0a1.93,1.93,0,0,1-1.08.29h-.21a3.32,3.32,0,0,1-2.27-.72Z" style="fill:#231f20"/><path d="M11.15,15.46c4.77.87,9.11-1,9.7-4.25.48-2.6-1.75-4.68-5.14-5.84-.91-3.23-3-5.15-6-5.15s-5.47,2-5.47,4.56" style="fill:none;stroke:#231f20;stroke-width:0.4389128096971488px"/><path d="M21.1,8.76a1.79,1.79,0,0,1-1.67,1.88,1.81,1.81,0,0,1-2.21-1.22A1.81,1.81,0,0,1,18.9,7.54,1.79,1.79,0,0,1,21.1,8.76Z" style="fill:#231f20;stroke:#231f20;stroke-width:0.351130247757719px"/><path d="M9,8.49c1.92,5.09-1,6.62-3.45,6.62-4.51,0-6.08-3.35-4.41-6.57C3.19,4.66,3.15,2,5.59,2S7.76,5.1,9,8.49Z" style="fill:#a97f2c"/><path d="M9,8.49c1.92,5.09-1,6.62-3.45,6.62-4.51,0-6.08-3.35-4.41-6.57C3.19,4.66,3.15,2,5.59,2S7.76,5.1,9,8.49Z" style="fill:none;stroke:#000;stroke-width:0.4389128096971488px"/><path d="M20.3,7.83c.08.21-.42.61-1.12.87s-1.34.31-1.42.09.42-.61,1.12-.87S20.22,7.61,20.3,7.83Z" style="fill:#fff"/><ellipse cx="10.01" cy="5.06" rx="1.03" ry="0.7" style="fill:#231f20;stroke:#231f20;stroke-width:0.351130247757719px"/><path d="M15.5,4.35a.71.71,0,0,1-.8.74c-.56,0-1-.33-1-.74s.46-.74,1-.74A.71.71,0,0,1,15.5,4.35Z" style="fill:#231f20"/><path d="M9.94,4.74A.3.3,0,0,1,9.62,5a.31.31,0,0,1-.33-.27.31.31,0,0,1,.33-.26A.3.3,0,0,1,9.94,4.74Z" style="fill:#fff"/><path d="M14.56,4.16a.27.27,0,0,1-.28.24.24.24,0,1,1,0-.48A.27.27,0,0,1,14.56,4.16Z" style="fill:#fff"/><path d="M14.18,14.66c2.9.9,6.51,0,6.64-3.66,0,0,.07-.79-.12-.41-.88,1.7-2.93,2.46-6.19,2.88-.46.06-1.44.06-1.5.49C13,14.2,13.28,14.38,14.18,14.66Z" style="fill:#231f20"/><path d="M19.92,12.21c1.33.89,1,2.87-.24,3.11s-1.41-1.57-2.57-1.79A8.82,8.82,0,0,0,18.9,13,4.14,4.14,0,0,0,19.92,12.21Z" style="fill:#f26322;stroke:#231f20;stroke-width:0.4389128096971488px"/><path d="M19,13.11a2.25,2.25,0,0,1,1,1.82,5.45,5.45,0,0,0-.47-1.06C19.41,13.59,19,13.11,19,13.11Z" style="fill:#a74624"/><path d="M8.86,10.28s.92,4.6-4.74,3.81A21.55,21.55,0,0,0,7,12.38,15.48,15.48,0,0,0,8.86,10.28Z" style="fill:#886327"/><path d="M149.58,11.51a.77.77,0,0,1,.38.1.74.74,0,0,1,.29.29.76.76,0,0,1,.1.39.75.75,0,0,1-.1.38A.74.74,0,0,1,150,13a.75.75,0,0,1-.38.1.76.76,0,0,1-.39-.1.74.74,0,0,1-.29-.29.75.75,0,0,1-.1-.38.76.76,0,0,1,.1-.39.74.74,0,0,1,.29-.29A.81.81,0,0,1,149.58,11.51Zm0,.13a.72.72,0,0,0-.32.08A.64.64,0,0,0,149,12a.8.8,0,0,0-.08.33.72.72,0,0,0,.08.32.69.69,0,0,0,.24.24.66.66,0,0,0,.33.09.65.65,0,0,0,.32-.09.69.69,0,0,0,.24-.24.72.72,0,0,0,.08-.32.8.8,0,0,0-.08-.33.64.64,0,0,0-.25-.24A.71.71,0,0,0,149.58,11.64Zm-.35,1.08v-.84h.29l.21,0a.24.24,0,0,1,.11.09.16.16,0,0,1,0,.12.21.21,0,0,1-.07.16.24.24,0,0,1-.17.07l.07.05a.82.82,0,0,1,.12.16l.11.17h-.17l-.07-.13a.88.88,0,0,0-.14-.2.18.18,0,0,0-.11,0h-.08v.36Zm.14-.47h.16a.22.22,0,0,0,.16,0,.11.11,0,0,0,.05-.09.14.14,0,0,0,0-.07l-.06,0-.14,0h-.15Z" style="fill:#231f20"/></svg>